Coordinates
version=1
nRows=14
nColumns=24
inDegrees=yes

Units are S.I. units (second, meters, Newtons, ...)
Angles are in degrees.

endheader
time	pelvis_tilt	pelvis_list	pelvis_rotation	pelvis_tx	pelvis_ty	pelvis_tz	hip_flexion_r	hip_adduction_r	hip_rotation_r	knee_angle_r	ankle_angle_r	subtalar_angle_r	mtp_angle_r	hip_flexion_l	hip_adduction_l	hip_rotation_l	knee_angle_l	ankle_angle_l	subtalar_angle_l	mtp_angle_l	lumbar_extension	lumbar_bending	lumbar_rotation
      1.10383333	     -0.38390168	     -0.36126602	     -3.93186151	     -0.07454095	      0.99630871	      0.26512453	    -15.56560975	      3.05386172	      3.47316594	     -7.31137689	     11.76144152	    -11.57439196	      5.19223647	     22.06091349	     -0.93827375	     -6.60073627	      2.45828827	      2.64809493	     -5.45730137	      7.21553949	     -1.44147311	      0.74037633	     10.84900319
      1.10800000	     -0.39232166	     -0.28544098	     -3.99047782	     -0.06873574	      0.99577371	      0.26481021	    -15.64689315	      2.90966526	      3.40411682	     -7.83004733	     11.87752024	    -11.31496619	      5.23387961	     22.08820100	     -0.82655879	     -6.47474731	      2.16832040	      2.68926296	     -5.77416035	      7.26213018	     -1.41276028	      0.62980439	     11.00641726
      1.11216667	     -0.36706469	     -0.19886363	     -4.03897421	     -0.06287410	      0.99533078	      0.26449081	    -15.78536405	      2.75986432	      3.39728002	     -8.30254740	     11.82823073	    -11.30571112	      5.24660174	     22.10169091	     -0.70164470	     -6.45036816	      1.77197787	      2.71789925	     -5.96364704	      7.27564375	     -1.40430803	      0.52350498	     11.04338016
      1.11633333	     -0.37834554	     -0.10205186	     -4.10153253	     -0.05698281	      0.99485148	      0.26415861	    -15.81567096	      2.58651597	      3.24534305	     -8.92058546	     11.98625208	    -10.90198935	      5.34000722	     22.12325710	     -0.56541788	     -6.26310603	      1.37942108	      2.65856112	     -6.42587215	      7.35208079	     -1.32983630	      0.38448398	     11.25497811
      1.12050000	     -0.36696299	      0.01413989	     -4.16090019	     -0.05104081	      0.99445152	      0.26384473	    -15.89465368	      2.40030820	      3.21292839	     -9.48561259	     12.00602762	    -10.77883476	      5.41735400	     22.13341318	     -0.41076882	     -6.12528282	      0.90471519	      2.64596898	     -6.74355256	      7.41229216	     -1.28782712	      0.20940361	     11.34306944
      1.12466667	     -0.35708703	      0.12859539	     -4.21927935	     -0.04507941	      0.99407910	      0.26348882	    -15.93816344	      2.20878012	      3.09961943	    -10.11521893	     12.02068692	    -10.52626604	      5.55198554	     22.14474386	     -0.25295414	     -5.97265531	      0.39688799	      2.48911065	     -7.15777797	      7.50675574	     -1.23681919	      0.06754517	     11.48048337
      1.12883333	     -0.34554064	      0.25726118	     -4.27737062	     -0.03907807	      0.99374558	      0.26313610	    -15.97339672	      2.00480338	      3.01506875	    -10.76447253	     11.99755768	    -10.33698707	      5.72206208	     22.14996079	     -0.07981694	     -5.80249882	     -0.14229428	      2.33262381	     -7.55530889	      7.61931616	     -1.18636607	     -0.10498599	     11.58789227
      1.13300000	     -0.34326551	      0.39294967	     -4.33769682	     -0.03303867	      0.99343856	      0.26277921	    -15.98039859	      1.79293525	      2.92877729	    -11.44786244	     11.94551587	    -10.15602062	      5.92199416	     22.16340242	      0.09974245	     -5.63261627	     -0.70992003	      2.13188596	     -7.94786956	      7.74118488	     -1.11682241	     -0.28455430	     11.69822331
      1.13716667	     -0.25966904	      0.54844998	     -4.37418521	     -0.02695208	      0.99327107	      0.26238702	    -16.08551756	      1.55934670	      2.82204906	    -12.10455705	     11.81946899	    -10.01787474	      6.93844981	     22.06050097	      0.32304454	     -5.34418723	     -1.23869578	      1.84025700	     -8.53939676	      8.32749720	     -1.14734425	     -0.50579031	     11.75884471
      1.14133333	     -0.24213191	      0.71543022	     -4.45689652	     -0.02085945	      0.99305398	      0.26200756	    -16.03480859	      1.29657016	      2.66999636	    -12.92826047	     11.75487391	     -9.74285236	      8.13564853	     22.04185943	      0.53014242	     -5.24024241	     -1.81388515	      1.54157732	     -8.82839125	      8.96059138	     -1.09026936	     -0.71463420	     11.91147795
      1.14550000	     -0.26686369	      0.85592776	     -4.49116210	     -0.01474044	      0.99280589	      0.26158658	    -15.96883821	      1.08976692	      2.58942439	    -13.68932696	     11.57456028	     -9.64355070	      8.61300635	     22.10070612	      0.72294655	     -5.04415479	     -2.47541096	      1.26593384	     -9.23652937	      9.18414142	     -0.97451161	     -0.89963281	     11.99016485
      1.14966667	     -0.27508824	      1.01143041	     -4.55054952	     -0.00860518	      0.99262300	      0.26117287	    -15.87252402	      0.85276701	      2.47983909	    -14.53974898	     11.38288718	     -9.48393508	      8.88612788	     22.12533918	      0.92298437	     -4.90399609	     -3.11672112	      0.96209962	     -9.54742167	      9.29260457	     -0.87943724	     -1.10071370	     12.07093278
      1.15383333	     -0.25374195	      1.17650999	     -4.60939655	     -0.00246235	      0.99251625	      0.26074333	    -15.77814806	      0.60108236	      2.35746696	    -15.44288648	     11.17412502	     -9.30014999	      9.10968382	     22.09904655	      1.13718879	     -4.76122513	     -3.71834647	      0.57154203	     -9.86719212	      9.36822458	     -0.81779814	     -1.30491517	     12.14231991
      1.15800000	     -0.16678291	      1.36095372	     -4.62920900	      0.00373223	      0.99254130	      0.26025073	    -15.76404829	      0.33203720	      2.19175179	    -16.31841198	     10.84953255	     -9.18910666	     10.41458168	     21.96586389	      1.40301134	     -4.47198558	     -4.24553141	      0.07547374	    -10.43972684	      9.76986647	     -0.83533801	     -1.55189596	     12.20063677
